<svg width="24" height="21" viewBox="0 0 24 21" fill="none" xmlns="http://www.w3.org/2000/svg">
<path d="M1.72376 8.2875C2.39501 4.9275 2.73126 3.25 3.84001 2.1675C4.04493 1.96805 4.26657 1.78656 4.50251 1.625C5.78126 0.75 7.49376 0.75 10.9188 0.75H13.0475C16.4713 0.75 18.1825 0.75 19.46 1.625C19.6975 1.7875 19.9188 1.97 20.1225 2.16875C21.2325 3.25 21.5688 4.92875 22.24 8.28625C23.2038 13.1063 23.6863 15.5163 22.5763 17.2238C22.3763 17.5338 22.1413 17.82 21.8763 18.0775C20.4188 19.5 17.9625 19.5 13.0475 19.5H10.9188C6.00251 19.5 3.54501 19.5 2.08751 18.0775C1.8238 17.8196 1.58946 17.5333 1.38876 17.2238C0.278761 15.5163 0.761261 13.1063 1.72626 8.28625L1.72376 8.2875Z" stroke="#282828" stroke-width="1.5"/>
</svg>
